<svg xmlns="http://www.w3.org/2000/svg" xmlns:xlink="http://www.w3.org/1999/xlink" width="1000" height="520" viewBox="0 0 1000 520">
  <defs>
    <clipPath id="clip-path">
      <rect id="Rectangle_2" data-name="Rectangle 2" width="943.984" height="480.457"/>
    </clipPath>
    <clipPath id="clip-symbol">
      <rect width="1000" height="520"/>
    </clipPath>
  </defs>
  <g id="symbol" clip-path="url(#clip-symbol)">
    <g id="Group_2" data-name="Group 2" transform="translate(22.506 19.543)">
      <g id="Group_1" data-name="Group 1" clip-path="url(#clip-path)">
        <path id="Path_1" data-name="Path 1" d="M943.162,468.124,698.743,58.975a5.826,5.826,0,0,0-5-2.836H693.7a5.825,5.825,0,0,0-5,2.911l-57.347,99.327a5.817,5.817,0,0,0,0,5.822l32.386,56.1a5.817,5.817,0,0,0,5.039,2.911h0a5.818,5.818,0,0,0,5.039-2.906l20.06-34.682L830.554,409.154h-101.3A5.777,5.777,0,0,0,726,410.195l.547-1.041L473.641,2.743A5.9,5.9,0,0,0,468.6,0a5.82,5.82,0,0,0-4.946,2.911L368.678,167.417,284.059,56.32a9.316,9.316,0,0,0-15.211.545L1.516,466.019a9.315,9.315,0,0,0,7.8,14.405h60.47c.214.019.442.033.608.033h70.814a12.881,12.881,0,0,0,10.959-6.178l31.627-52.287a12.8,12.8,0,0,0-10.719-19.825H131.436L277.445,163.4,330.407,233.7,195.022,468.2a5.822,5.822,0,0,0,5.042,8.733H589.982a5.824,5.824,0,0,0,4.793-9.131l-112.3-162.532a5.687,5.687,0,0,0-4.942-2.51,5.822,5.822,0,0,0-4.8,2.767l-27.807,45.122a5.818,5.818,0,0,0,.186,6.392l36.463,52.112h-174.2l67.333-116.625,21.715,28.827a9.316,9.316,0,0,0,15.5-.917l28.585-49.22a9.283,9.283,0,0,0-.64-10.323v0L413.2,225.866l55.715-96.5L685.341,473.2a6.015,6.015,0,0,0,.226.62,5.816,5.816,0,0,0,5.151,3.109H938.165a5.822,5.822,0,0,0,5-8.807" transform="translate(0)"/>
      </g>
    </g>
  </g>
</svg>
